<?xml version="1.0" encoding="UTF-8" standalone="no"?><!DOCTYPE svg PUBLIC "-//W3C//DTD SVG 1.1//EN" "http://www.w3.org/Graphics/SVG/1.1/DTD/svg11.dtd"><svg width="100%" height="100%" viewBox="0 0 8334 8371" version="1.1" xmlns="http://www.w3.org/2000/svg" xmlns:xlink="http://www.w3.org/1999/xlink" xml:space="preserve" xmlns:serif="http://www.serif.com/" style="fill-rule:evenodd;clip-rule:evenodd;stroke-linejoin:round;stroke-miterlimit:2;"><rect id="Page-1" serif:id="Page 1" x="0" y="0" width="8333.333" height="8370.75" style="fill:none;"/><g id="Layer-1" serif:id="Layer 1"><rect x="0" y="0" width="8333.333" height="8370.75" style="fill:#ff2d20;"/><path d="M7376.108,2281.614l-736.908,437.275l0,-857.017l736.908,419.742Z" style="fill:#fff;fill-rule:nonzero;"/><path d="M5525.208,2325.838l0,913.808l-812.796,-457.692l0,-920.083l812.796,463.967Z" style="fill:#fff;fill-rule:nonzero;"/><path d="M6402.898,1727.364l-799.446,462.396l-810.179,-462.396l810.179,-455.592l799.446,455.592Z" style="fill:#fff;fill-rule:nonzero;"/><path d="M5525.208,4625.529l0,797.354l-706.812,-392.525l706.812,-404.829Z" style="fill:#fff;fill-rule:nonzero;"/><path d="M7453.828,2417.952l0,910.667l-897.846,522.058c-35.846,20.938 -58.092,59.667 -58.092,101.012l0,1017.958l-815.671,453.238l0,-1068.2l-969.808,555.558l0,-935l930.554,-533.317c0.525,-0.263 1.046,-0.788 1.571,-1.308c5.233,-3.142 10.467,-6.804 14.65,-11.25c0.262,0 0.262,-0.263 0.525,-0.263c4.188,-4.45 7.592,-9.162 10.729,-14.396c1.046,-1.571 1.833,-2.879 2.617,-4.446c2.096,-4.188 3.925,-8.637 5.233,-13.088l1.571,-4.708c1.571,-6.021 2.358,-12.3 2.358,-18.579l0,-1048.312l799.971,-462.658l0,1131.787l971.637,-576.754Z" style="fill:#fff;fill-rule:nonzero;"/><path d="M5444.868,3374.412l-811.225,465.017l-791.858,-449.054l806.254,-464.492l796.829,448.529Z" style="fill:#fff;fill-rule:nonzero;"/><path d="M4555.4,3975.504l0,908.833l-793.429,-440.417l0,-918.254l793.429,449.838Z" style="fill:#fff;fill-rule:nonzero;"/><path d="M4555.4,5181.088l0,912.233l-1751.458,1005.396l0,-914.592l1751.458,-1003.038Z" style="fill:#fff;fill-rule:nonzero;"/><path d="M4498.875,5032.45l-1772.917,1015.6l-805.467,-472.863l1763.233,-994.929l815.15,452.192Z" style="fill:#fff;fill-rule:nonzero;"/><path d="M2568.424,2842.667l-805.729,458.213l-804.683,-446.7l805.729,-482.808l804.683,471.296Z" style="fill:#fff;fill-rule:nonzero;"/><path d="M2646.93,2978.744l0,2006.342l-805.208,454.288l0,-2002.679l805.208,-457.95Z" style="fill:#fff;fill-rule:nonzero;"/><path d="M2646.93,6183.605l0,915.375l-1767.425,-1010.629l0,-3098.092l805.208,446.958l0,2136.4c0,1.046 0.262,2.092 0.262,3.137c0.263,4.713 1.046,9.421 2.092,14.133c0.263,1.571 0.525,3.138 0.783,4.446c1.833,5.758 3.929,11.517 7.067,17.012l0,0.262c0.263,0.258 0.525,0.783 0.783,1.046c3.142,4.971 6.546,9.421 10.471,13.608c1.046,1.308 2.354,2.354 3.663,3.663c3.404,3.142 7.067,6.017 10.992,8.633c1.046,0.525 1.571,1.308 2.617,1.833l923.488,542.212Z" style="fill:#fff;fill-rule:nonzero;"/></g></svg>