<?xml version="1.0" encoding="UTF-8" standalone="no"?><!DOCTYPE svg PUBLIC "-//W3C//DTD SVG 1.1//EN" "http://www.w3.org/Graphics/SVG/1.1/DTD/svg11.dtd"><svg width="100%" height="100%" viewBox="0 0 8334 8371" version="1.1" xmlns="http://www.w3.org/2000/svg" xmlns:xlink="http://www.w3.org/1999/xlink" xml:space="preserve" xmlns:serif="http://www.serif.com/" style="fill-rule:evenodd;clip-rule:evenodd;stroke-linejoin:round;stroke-miterlimit:2;"><rect id="Page-1" serif:id="Page 1" x="0" y="0" width="8333.333" height="8370.75" style="fill:none;"/><g id="Layer-1" serif:id="Layer 1"><rect x="0" y="0" width="8333.333" height="8370.75" style="fill:#fff;"/><path d="M7409.211,3317.933l-885.658,514.975c-35.358,20.654 -57.304,58.854 -57.304,99.642l0,1004.137l-804.6,447.087l0,-1019.996c0,-15.008 -16.221,-24.412 -29.246,-16.95l-927.4,531.262l0,-922.308l917.925,-526.079c0.517,-0.258 1.029,-0.775 1.546,-1.287c5.167,-3.1 10.329,-6.713 14.454,-11.1c0.258,0 0.258,-0.258 0.517,-0.258c4.133,-4.392 7.488,-9.038 10.588,-14.2c1.029,-1.55 1.804,-2.838 2.579,-4.388c2.067,-4.129 3.871,-8.517 5.163,-12.908l1.55,-4.646c1.55,-5.933 2.325,-12.129 2.325,-18.325l0,-1034.083l789.113,-456.379l0,1082.112c0,15.146 16.483,24.529 29.504,16.8l928.946,-551.412l0,898.304Zm-1902.442,2065.842l-697.221,-387.2l697.221,-399.333l0,786.533Zm-879.462,-1561.962l-781.113,-442.958l795.308,-458.187l786.017,442.442l-800.212,458.704Zm-77.183,1030.725l-782.662,-434.438l0,-905.792l782.662,443.733l0,896.496Zm0,1192.579l-1727.688,991.746l0,-902.175l1727.688,-989.425l0,899.854Zm-1804.613,-44.658l-794.533,-466.446l1739.304,-981.425l804.083,446.054l-1748.854,1001.817Zm-77.954,1036.663l-1743.433,-996.913l0,-3056.042l794.275,440.892l0,2107.404c0,1.033 0.258,2.062 0.258,3.096c0.258,4.646 1.033,9.292 2.067,13.942c0.254,1.546 0.513,3.096 0.771,4.387c1.808,5.679 3.875,11.354 6.971,16.779l0,0.258c0.258,0.258 0.517,0.771 0.775,1.029c3.096,4.904 6.454,9.292 10.325,13.425c1.033,1.292 2.325,2.321 3.617,3.613c3.354,3.1 6.967,5.938 10.842,8.521c1.029,0.517 1.546,1.288 2.579,1.804l910.954,534.854l0,902.95Zm0,-4064.313l0,1979.108l-794.279,448.121l0,-1975.496l794.279,-451.733Zm-871.2,-599.129l793.758,464.9l-794.792,451.992l-793.763,-440.633l794.796,-476.258Zm2908.646,-502.583l801.767,457.671l0,901.404l-801.767,-451.479l0,-907.596Zm878.946,-582.092l788.596,449.412l-788.596,456.121l-799.183,-456.121l799.183,-449.412Zm1021.692,582.092l726.904,414.046l-726.904,431.342l0,-845.388Zm919.471,345.383l-1902.442,-1083.646c-23.75,-13.421 -52.658,-13.421 -76.408,-0.258l-956.642,537.692c-0.258,0 -0.258,0.258 -0.517,0.258c0,0.258 -0.258,0.258 -0.517,0.258c-0.517,0.517 -1.033,1.033 -1.808,1.55c-4.646,2.838 -8.775,5.938 -12.392,9.55l-3.867,3.871c-3.104,3.358 -5.679,6.971 -8.004,10.842c-1.033,1.292 -2.067,2.583 -2.842,4.133c-2.838,5.421 -5.162,10.842 -6.712,16.517c-0.258,0.775 -0.258,1.292 -0.517,2.067c-1.287,5.163 -1.804,10.583 -2.062,16.263c0,0.775 -0.258,1.292 -0.258,2.325l0,1056.796l-898.821,517.817c-0.775,0.517 -1.55,1.292 -2.325,1.808c-4.129,2.579 -7.742,5.421 -11.1,8.517c-1.287,1.292 -2.579,2.325 -3.871,3.617c-3.871,3.871 -7.225,8.258 -10.067,13.163c-0.258,0.517 -0.775,1.033 -1.033,1.292c0,0.258 -0.258,0.258 -0.258,0.517c-3.096,5.162 -5.162,10.842 -6.708,16.521c-0.517,1.546 -0.775,2.837 -1.033,4.387c-1.033,4.904 -1.808,9.55 -1.808,14.196c0,1.033 -0.517,2.067 -0.517,3.1l0,1038.988l-790.146,445.796l0,-2024.8c0,-6.454 -1.033,-12.392 -2.325,-18.071c-0.517,-1.804 -1.029,-3.354 -1.546,-4.904c-1.292,-4.387 -3.1,-8.517 -5.162,-12.646c-0.775,-1.55 -1.55,-3.1 -2.583,-4.646c-2.838,-4.65 -5.938,-9.037 -9.808,-12.908c-0.517,-0.517 -0.775,-1.033 -1.033,-1.292c-4.387,-4.388 -9.292,-8.004 -14.454,-11.358c-0.517,-0.258 -1.033,-0.775 -1.55,-1.033l-948.896,-555.758c-24.525,-14.454 -54.725,-14.2 -78.992,0.254l-949.154,568.929c-5.425,3.096 -10.071,6.967 -14.2,11.1c-1.292,1.292 -2.067,2.579 -3.354,3.613c-2.842,3.358 -5.679,6.971 -8.004,10.842c-1.033,1.55 -2.063,3.1 -2.838,4.646c-2.325,4.646 -4.392,9.292 -5.679,14.2c-0.258,0.775 -0.775,1.546 -1.033,2.579c-1.55,5.679 -2.325,11.875 -2.325,17.812c0,0.517 -0.258,1.033 -0.258,1.55l0,3232.604c0,27.879 14.975,53.433 38.979,67.371l1898.317,1085.454c11.612,6.708 25.037,10.067 38.462,10.067c6.708,0 13.163,-0.775 19.875,-2.579c2.062,-0.517 3.871,-1.808 5.937,-2.325c4.388,-1.55 8.517,-2.842 12.646,-5.421l1882.567,-1080.546c24.267,-13.942 38.979,-39.496 38.979,-67.375l0,-973.938l829.125,460.25c2.067,1.033 4.392,1.55 6.454,2.583c12.908,8.775 28.137,13.937 43.883,13.937c12.65,0 25.558,-3.096 37.429,-9.55l959.221,-533.046c24.783,-13.679 40.013,-39.492 40.013,-67.629l0,-1026.854l904.5,-526.079c23.75,-13.938 38.462,-39.233 38.462,-66.854l0,-1078.742c0,-27.879 -14.971,-53.692 -38.979,-67.371" style="fill:#ff2d20;fill-rule:nonzero;"/></g></svg>